<svg width="23" height="20" viewBox="0 0 23 20" fill="none" xmlns="http://www.w3.org/2000/svg">
<path d="M13.6658 0.93247C13.3124 0.578011 12.7391 0.578011 12.3851 0.93247C12.0314 1.28664 12.0314 1.86153 12.3851 2.21599L19.2443 9.09014H1.01963C0.517979 9.09014 0.111084 9.49793 0.111084 10.0007C0.111084 10.5037 0.517979 10.9112 1.01963 10.9112H19.2352L12.376 17.7854C12.2058 17.9553 12.1102 18.1866 12.1102 18.4273C12.1102 18.6682 12.2058 18.8989 12.376 19.0692C12.5461 19.2411 12.7792 19.3364 13.021 19.3332C13.2621 19.3321 13.4934 19.2374 13.6658 19.0692L22.0695 10.6474C22.2405 10.4758 22.3358 10.2428 22.3333 10.0007C22.3315 9.75914 22.2371 9.52815 22.0695 9.35449L13.6658 0.93247Z" fill="white"/>
</svg>
