<svg width="22" height="20" viewBox="0 0 22 20" fill="none" xmlns="http://www.w3.org/2000/svg">
<path d="M6.13233 11.4511L2.09327 7.24789L6.13233 3.04468C6.45872 2.70465 6.42065 2.18828 6.04661 1.89129C5.67256 1.59457 5.10486 1.62945 4.77787 1.96922L0.222105 6.71027C-0.0740352 7.01816 -0.0740352 7.47785 0.222105 7.78574L4.77791 12.5268C4.95593 12.7116 5.20502 12.8064 5.45557 12.8064C5.66539 12.8064 5.87606 12.7399 6.04661 12.6045C6.42069 12.3075 6.45902 11.7911 6.13233 11.4511Z" fill="#141414"/>
<path d="M15.4657 6.43042H0.899164C0.402531 6.43042 0 6.79632 0 7.24784C0 7.69933 0.402531 8.06526 0.899164 8.06526H15.4657C18.0772 8.06526 20.2017 9.99655 20.2017 12.3704C20.2017 14.7442 18.0772 16.6755 15.4657 16.6755H2.09808C1.60145 16.6755 1.19891 17.0414 1.19891 17.4929C1.19891 17.9444 1.60145 18.3103 2.09808 18.3103H15.4657C19.0684 18.3103 22 15.6455 22 12.3704C22 9.09522 19.0687 6.43042 15.4657 6.43042Z" fill="#141414"/>
</svg>
