<svg width="34" height="30" viewBox="0 0 34 30" fill="none" xmlns="http://www.w3.org/2000/svg">
<path fill-rule="evenodd" clip-rule="evenodd" d="M31.6472 9.40311C32.3727 9.40311 33.0463 9.72624 33.4953 10.2895C33.936 10.8425 34.0986 11.5535 33.9414 12.2402L30.4447 27.5138C30.2005 28.5802 29.2571 29.325 28.1504 29.325H5.8496C4.74294 29.325 3.7995 28.5802 3.55533 27.5138L0.0585745 12.2403C-0.0986091 11.5535 0.0640198 10.8426 0.504758 10.2896C0.953731 9.72624 1.62729 9.40317 2.35284 9.40317H8.90077L12.4514 1.27279C12.6716 0.768569 13.2588 0.538338 13.7629 0.758608C14.2671 0.978811 14.4972 1.56598 14.2771 2.07013L11.0746 9.40317H22.9254L19.7229 2.07013C19.5027 1.56598 19.733 0.978745 20.2371 0.758608C20.7413 0.538338 21.3284 0.768702 21.5486 1.27279L25.0992 9.40311H31.6472ZM5.8496 27.3328H28.1504C28.3195 27.3328 28.4678 27.2219 28.5028 27.0691L31.9996 11.7957C32.027 11.6759 31.9809 11.5857 31.9374 11.5312C31.8971 11.4804 31.8056 11.3954 31.6473 11.3954H25.9694L26.2303 11.9928C26.4505 12.497 26.2202 13.0842 25.7161 13.3043C25.5863 13.3611 25.4511 13.3879 25.318 13.3879C24.934 13.3879 24.5681 13.1646 24.4046 12.7902L23.7955 11.3955H10.2047L9.59551 12.7902C9.43202 13.1646 9.06612 13.3879 8.68216 13.3879C8.54901 13.3879 8.41381 13.3611 8.28405 13.3043C7.77989 13.0841 7.54973 12.497 7.76987 11.9928L8.03078 11.3954H2.35284C2.19453 11.3954 2.10309 11.4804 2.06272 11.5312C2.01915 11.5857 1.97313 11.6759 2.00056 11.7957L5.49731 27.069C5.53231 27.2219 5.68046 27.3328 5.8496 27.3328ZM10.0274 16.7078C10.0274 16.1577 10.4733 15.7117 11.0234 15.7117C11.5736 15.7117 12.0195 16.1577 12.0195 16.7078V24.0125C12.0195 24.5626 11.5736 25.0086 11.0234 25.0086C10.4733 25.0086 10.0274 24.5626 10.0274 24.0125V16.7078ZM17 15.7117C16.4499 15.7117 16.0039 16.1577 16.0039 16.7078V24.0125C16.0039 24.5626 16.4499 25.0086 17 25.0086C17.5501 25.0086 17.9961 24.5626 17.9961 24.0125V16.7078C17.9961 16.1577 17.5501 15.7117 17 15.7117ZM21.9805 16.7078C21.9805 16.1577 22.4265 15.7117 22.9766 15.7117C23.5267 15.7117 23.9726 16.1577 23.9727 16.7078V24.0125C23.9727 24.5626 23.5267 25.0086 22.9766 25.0086C22.4265 25.0086 21.9805 24.5626 21.9805 24.0125V16.7078Z" fill="#141414"/>
</svg>
