<svg class="goodFill" width="35" height="34" viewBox="0 0 35 34" fill="none" xmlns="http://www.w3.org/2000/svg">
<rect x="1.4585" y="0.5" width="33" height="33" rx="9.5" stroke="#7289D9"/>
<g clip-path="url(#clip0)">
<path d="M23.083 24.2672C23.083 24.2672 22.4206 23.4754 21.8686 22.7941C24.2791 22.1129 25.1991 20.6214 25.1991 20.6214C24.4447 21.1185 23.727 21.4684 23.083 21.7078C22.163 22.0944 21.2797 22.3338 20.4149 22.4995C18.6484 22.831 17.0292 22.7389 15.6491 22.4811C14.6003 22.2786 13.6986 22.0024 12.9442 21.6894C12.521 21.5236 12.061 21.3211 11.6009 21.0633C11.5457 21.0265 11.4905 21.0081 11.4353 20.9712C11.3985 20.9528 11.3801 20.9344 11.3617 20.9344C11.0305 20.7503 10.8465 20.6214 10.8465 20.6214C10.8465 20.6214 11.7297 22.076 14.0666 22.7757C13.5146 23.4754 12.8338 24.2856 12.8338 24.2856C8.76722 24.1567 7.22156 21.5052 7.22156 21.5052C7.22156 15.6314 9.87127 10.8624 9.87127 10.8624C12.521 8.89218 15.0235 8.94742 15.0235 8.94742L15.2075 9.16838C11.8953 10.1075 10.3865 11.5621 10.3865 11.5621C10.3865 11.5621 10.7913 11.3411 11.4721 11.0465C13.441 10.1811 15.0051 9.96015 15.6491 9.88649C15.7595 9.86808 15.8515 9.84967 15.9619 9.84967C17.0844 9.70236 18.354 9.66554 19.6789 9.81284C21.4269 10.0154 23.3038 10.531 25.2175 11.5621C25.2175 11.5621 23.7638 10.1811 20.6357 9.24203L20.8933 8.94742C20.8933 8.94742 23.4142 8.89218 26.0455 10.8624C26.0455 10.8624 28.6952 15.6314 28.6952 21.5052C28.6952 21.4868 27.1496 24.1383 23.083 24.2672ZM21.2429 15.7419C20.1941 15.7419 19.3661 16.6441 19.3661 17.7673C19.3661 18.8905 20.2125 19.7928 21.2429 19.7928C22.2918 19.7928 23.1198 18.8905 23.1198 17.7673C23.1198 16.6441 22.2734 15.7419 21.2429 15.7419ZM14.5267 15.7419C13.4778 15.7419 12.6498 16.6441 12.6498 17.7673C12.6498 18.8905 13.4962 19.7928 14.5267 19.7928C15.5755 19.7928 16.4035 18.8905 16.4035 17.7673C16.4219 16.6441 15.5755 15.7419 14.5267 15.7419Z" fill="#7289D9"/>
</g>
<defs>
<clipPath id="clip0">
<rect width="21.4737" height="16.1053" fill="white" transform="translate(7.22156 8.94727)"/>
</clipPath>
</defs>
</svg>
