<svg class="goodFill" width="15" height="15" viewBox="0 0 15 15" fill="none" xmlns="http://www.w3.org/2000/svg">
<circle cx="7.5" cy="7.5" r="7" stroke="#9B9B9B"/>
<path opacity="0.7" d="M7.05078 9.49219C7.05078 8.97266 7.11523 8.55859 7.24414 8.25C7.37305 7.94141 7.62695 7.60352 8.00586 7.23633C8.38867 6.86523 8.63086 6.60156 8.73242 6.44531C8.88867 6.20703 8.9668 5.94922 8.9668 5.67188C8.9668 5.30469 8.875 5.02539 8.69141 4.83398C8.51172 4.63867 8.24609 4.54102 7.89453 4.54102C7.55859 4.54102 7.28711 4.63672 7.08008 4.82812C6.87695 5.01562 6.77539 5.27148 6.77539 5.5957H5.35156C5.35938 4.9043 5.59375 4.35742 6.05469 3.95508C6.51953 3.55273 7.13281 3.35156 7.89453 3.35156C8.67969 3.35156 9.29102 3.55078 9.72852 3.94922C10.1699 4.34766 10.3906 4.9043 10.3906 5.61914C10.3906 6.25586 10.0938 6.88281 9.5 7.5L8.7793 8.20898C8.52148 8.50195 8.38867 8.92969 8.38086 9.49219H7.05078ZM6.95117 11.3145C6.95117 11.084 7.02344 10.8984 7.16797 10.7578C7.3125 10.6133 7.50781 10.541 7.75391 10.541C8.00391 10.541 8.20117 10.6152 8.3457 10.7637C8.49023 10.9082 8.5625 11.0918 8.5625 11.3145C8.5625 11.5293 8.49219 11.709 8.35156 11.8535C8.21094 11.998 8.01172 12.0703 7.75391 12.0703C7.49609 12.0703 7.29688 11.998 7.15625 11.8535C7.01953 11.709 6.95117 11.5293 6.95117 11.3145Z" fill="#9B9B9B"/>
</svg>
