<svg class="goodFill" width="34" height="34" viewBox="0 0 34 34" fill="none" xmlns="http://www.w3.org/2000/svg">
<rect x="0.5" y="0.5" width="33" height="33" rx="9.5" stroke="#467FC2"/>
<path fill-rule="evenodd" clip-rule="evenodd" d="M24.6418 13.2534C24.7664 12.8343 24.6418 12.5263 24.05 12.5263H22.0922C21.5943 12.5263 21.365 12.7923 21.2404 13.0858C21.2404 13.0858 20.245 15.5372 18.8348 17.1296C18.3784 17.5906 18.1711 17.7375 17.9221 17.7375C17.7978 17.7375 17.6177 17.5906 17.6177 17.1719V13.2534C17.6177 12.7503 17.4729 12.5263 17.0582 12.5263H13.9817C13.6708 12.5263 13.4838 12.7598 13.4838 12.9809C13.4838 13.4575 14.1887 13.5675 14.2614 14.9086V17.8215C14.2614 18.4599 14.1475 18.5757 13.8986 18.5757C13.2348 18.5757 11.6205 16.113 10.663 13.2954C10.4753 12.7475 10.2873 12.5263 9.78689 12.5263H7.82902C7.26989 12.5263 7.15778 12.7923 7.15778 13.0858C7.15778 13.6095 7.82186 16.2078 10.2482 19.6443C11.8658 21.9911 14.145 23.2632 16.2193 23.2632C17.4636 23.2632 17.6177 22.9809 17.6177 22.4938V20.7202C17.6177 20.1549 17.7355 20.0424 18.1295 20.0424C18.4196 20.0424 18.9175 20.1889 20.0791 21.3206C21.4062 22.6617 21.6251 23.2632 22.3719 23.2632H24.3294C24.8889 23.2632 25.1687 22.9809 25.0071 22.4232C24.8305 21.8674 24.1969 21.0611 23.3559 20.1054C22.8995 19.5607 22.2154 18.9737 22.0076 18.6802C21.7175 18.3032 21.8002 18.1356 22.0076 17.8001C22.0076 17.8001 24.3928 14.406 24.6418 13.2534Z" fill="#467FC2"/>
</svg>
