<svg width="77" height="75" viewBox="0 0 77 75" fill="none" xmlns="http://www.w3.org/2000/svg">
<g clip-path="url(#clip0)">
<path d="M69.7068 25.7085H61.9675V14.9357C61.9675 11.4832 59.1191 8.67438 55.618 8.67438H6.34952C2.8484 8.67452 0 11.4834 0 14.9359V43.0295C0 46.482 2.8484 49.2908 6.34952 49.2908H14.0891V60.0642C14.0891 63.5167 16.9375 66.3255 20.4387 66.3255H69.7068C73.2079 66.3255 76.0563 63.5167 76.0563 60.0642V31.9698C76.0563 28.5173 73.2079 25.7085 69.7068 25.7085ZM3.62827 14.9359C3.62827 13.4562 4.84904 12.2524 6.34952 12.2524H55.618C57.1185 12.2524 58.3392 13.4562 58.3392 14.9359V17.4336H3.62827V14.9359ZM14.0891 31.9698V45.7128H6.34952C4.84904 45.7128 3.62827 44.509 3.62827 43.0294V29.2975H14.698C14.3081 30.1084 14.0891 31.0144 14.0891 31.9698ZM3.62827 25.7196V21.0116H58.3392V25.7085H20.4387C20.316 25.7085 20.1944 25.7127 20.0735 25.7196H3.62827ZM69.7068 62.7476H20.4387C18.9382 62.7476 17.7174 61.5438 17.7174 60.0642V31.9698C17.7174 30.564 18.8199 29.4094 20.2166 29.2975H60.1528C60.2198 29.2975 60.2856 29.2934 60.3506 29.2863H69.7067C71.2072 29.2863 72.4279 30.4902 72.4279 31.9698V60.0642H72.4281C72.4281 61.5438 71.2073 62.7476 69.7068 62.7476Z" fill="black"/>
<path d="M50.5375 37.3934C48.4739 37.3934 46.5763 38.1034 45.0791 39.2865C43.5442 38.0672 41.6315 37.3923 39.6082 37.3923C34.7856 37.3923 30.8622 41.2613 30.8622 46.0169C30.8622 50.7725 34.7856 54.6414 39.6082 54.6414C41.6316 54.6414 43.5442 53.9666 45.0791 52.7475C46.5763 53.9307 48.4739 54.6409 50.5375 54.6409C55.3596 54.6409 59.2826 50.7722 59.2826 46.017C59.2826 41.2619 55.3596 37.3934 50.5375 37.3934ZM42.7747 49.9806C41.8821 50.6776 40.7766 51.0634 39.6081 51.0634C36.7861 51.0636 34.4903 48.7996 34.4903 46.017C34.4903 43.2343 36.7861 40.9704 39.6081 40.9704C40.7766 40.9704 41.8819 41.3563 42.7747 42.0532C42.1484 43.2409 41.7923 44.5882 41.7923 46.0167C41.7923 47.4454 42.1486 48.7928 42.7747 49.9806ZM50.5375 51.0628C47.7161 51.0628 45.4208 48.7992 45.4208 46.0169C45.4208 43.2347 47.7163 40.9712 50.5375 40.9712C53.3588 40.9712 55.6542 43.2349 55.6542 46.0169C55.6542 48.7994 53.3588 51.0628 50.5375 51.0628Z" fill="black"/>
</g>
<defs>
<clipPath id="clip0">
<rect width="76.0563" height="75" fill="white"/>
</clipPath>
</defs>
</svg>
