<svg width="76" height="75" viewBox="0 0 76 75" fill="none" xmlns="http://www.w3.org/2000/svg">
<path d="M67.9304 19.7286C63.4808 19.7286 59.8609 23.3009 59.8609 27.6919C59.8609 29.2934 60.344 30.7848 61.1717 32.0347L52.4536 40.6382C51.1868 39.8214 49.6756 39.3446 48.0527 39.3446C46.371 39.3446 44.8082 39.8555 43.5141 40.7275L34.7061 32.0341C35.5336 30.7842 36.0165 29.293 36.0165 27.6918C36.0165 23.3008 32.3966 19.7285 27.947 19.7285C23.4975 19.7285 19.8775 23.3008 19.8775 27.6918C19.8775 29.293 20.3605 30.7838 21.1878 32.0337L12.4693 40.6376C11.2029 39.8211 9.69191 39.3446 8.06949 39.3446C3.61994 39.3446 0 42.917 0 47.3081C0 51.6991 3.61994 55.2714 8.06949 55.2714C12.519 55.2714 16.139 51.6991 16.139 47.3081C16.139 45.7065 15.6558 44.2152 14.8281 42.9651L23.5463 34.3616C24.8131 35.1784 26.3243 35.6552 27.9472 35.6552C29.5699 35.6552 31.0811 35.1784 32.3477 34.3616L41.2044 43.1029C40.4316 44.3243 39.9833 45.7651 39.9833 47.3079C39.9833 51.6989 43.6033 55.2712 48.0528 55.2712C52.5024 55.2712 56.1223 51.6989 56.1223 47.3079C56.1223 45.7067 55.6393 44.2158 54.8121 42.966L63.5307 34.3621C64.7973 35.1786 66.3082 35.6551 67.9305 35.6551C72.3801 35.6551 76 32.0828 76 27.6918C76 23.3006 72.3799 19.7286 67.9304 19.7286ZM8.06949 51.9797C5.45908 51.9797 3.33538 49.884 3.33538 47.3081C3.33538 44.732 5.45908 42.6362 8.06949 42.6362C10.6798 42.6362 12.8036 44.732 12.8036 47.3081C12.8036 49.884 10.6799 51.9797 8.06949 51.9797ZM27.9472 32.3636C25.3369 32.3636 23.2131 30.2678 23.2131 27.6918C23.2131 25.1158 25.3367 23.02 27.9472 23.02C30.5576 23.02 32.6813 25.1157 32.6813 27.6918C32.6813 30.2678 30.5576 32.3636 27.9472 32.3636ZM48.0527 51.9797C45.4424 51.9797 43.3186 49.884 43.3186 47.3079C43.3186 44.7318 45.4423 42.6361 48.0527 42.6361C50.663 42.6361 52.7868 44.7318 52.7868 47.3079C52.7867 49.884 50.663 51.9797 48.0527 51.9797ZM67.9304 32.3636C65.3201 32.3636 63.1963 30.2678 63.1963 27.6918C63.1963 25.1158 65.3199 23.02 67.9304 23.02C70.5406 23.02 72.6645 25.1157 72.6645 27.6918C72.6645 30.2678 70.5406 32.3636 67.9304 32.3636Z" fill="black"/>
<path d="M26.2399 39.9487C25.5886 39.3061 24.5328 39.3061 23.8814 39.9487L20.489 43.2965C19.8379 43.9391 19.8379 44.9812 20.4892 45.6239C20.8149 45.9453 21.2416 46.106 21.6684 46.106C22.0951 46.106 22.522 45.9452 22.8476 45.6239L26.2399 42.2762C26.8914 41.6336 26.8914 40.5913 26.2399 39.9487Z" fill="black"/>
<path d="M55.5099 29.4344C54.8585 28.7918 53.8028 28.7918 53.1512 29.4346L49.7588 32.7823C49.1076 33.4249 49.1076 34.467 49.7588 35.1098C50.0846 35.431 50.5114 35.5917 50.9382 35.5917C51.3651 35.5917 51.7917 35.4309 52.1173 35.1096L55.5097 31.7619C56.1611 31.1191 56.1611 30.077 55.5099 29.4344Z" fill="black"/>
</svg>
