<svg width="77" height="75" viewBox="0 0 77 75" fill="none" xmlns="http://www.w3.org/2000/svg">
<path d="M70.1498 7.23253C69.0873 6.01554 67.5378 5.31783 65.8987 5.31783H60.5188V3.67867C60.5188 1.6503 58.8243 0 56.742 0H20.2584C18.1758 0 16.4818 1.6503 16.4818 3.67852V5.31769H11.1012C9.46211 5.31769 7.91248 6.01554 6.85012 7.23239C5.79858 8.43664 5.3441 10.0184 5.60353 11.5718C7.0172 20.0387 12.4877 27.5186 20.2516 31.6215C20.961 33.2828 21.7644 34.8563 22.6591 36.3223C25.5168 41.0062 29.0695 44.2432 32.9799 45.8087C33.3762 49.7116 30.7099 53.409 26.6945 54.2901C26.6859 54.292 26.6799 54.295 26.6715 54.2969C25.8878 54.4793 25.3044 55.1642 25.3044 55.9834V63.9467H21.9979C19.05 63.9467 16.6517 66.2827 16.6517 69.1541V73.2642C16.6517 74.2229 17.4495 75 18.4338 75H58.7366C59.721 75 60.5188 74.2229 60.5188 73.2642V69.1541C60.5188 66.2827 58.1205 63.9467 55.1725 63.9467H51.8657V55.9835C51.8657 55.1628 51.2803 54.4768 50.4945 54.296C50.4871 54.2942 50.48 54.2919 50.4727 54.2901C46.4268 53.4032 43.7556 49.6686 44.1935 45.7363C48.0357 44.1455 51.5262 40.9373 54.3418 36.3226C55.2365 34.8565 56.0397 33.2828 56.7492 31.6212C64.5127 27.5182 69.9829 20.0384 71.3966 11.5718C71.656 10.0184 71.2015 8.43678 70.1498 7.23253ZM9.12147 11.0145C9.02883 10.4597 9.18629 9.91525 9.56497 9.48137C9.94922 9.04133 10.509 8.78908 11.1011 8.78908H16.4816V11.9827C16.4816 16.9905 17.1378 21.8412 18.3813 26.2771C13.4942 22.5156 10.1294 17.0513 9.12147 11.0145ZM55.1725 67.4185C56.1552 67.4185 56.9547 68.1973 56.9547 69.1544V71.5286H20.2158V69.1544C20.2158 68.1973 21.0153 67.4185 21.9979 67.4185H55.1725ZM48.3015 57.7193V63.9469H28.869V57.7193H48.3015ZM33.5427 54.2478C33.9832 53.7755 34.3859 53.2636 34.7461 52.7156C35.9338 50.9081 36.5571 48.8547 36.5851 46.7575C37.2181 46.8414 37.857 46.8864 38.5012 46.8864C39.2022 46.8864 39.8967 46.8339 40.5845 46.7346C40.6251 49.5528 41.7512 52.2205 43.6448 54.2477H33.5427V54.2478ZM56.9544 11.9829C56.9544 20.5345 54.9382 28.5487 51.2776 34.5487C47.7897 40.266 43.2521 43.4147 38.5009 43.4147C33.749 43.4147 29.2111 40.2661 25.7228 34.549C22.062 28.5488 20.0459 20.5347 20.0459 11.9832V3.67852C20.0459 3.56426 20.1412 3.47154 20.2582 3.47154H56.7417C56.859 3.47154 56.9544 3.56441 56.9544 3.67852V11.9829ZM67.8786 11.0145C66.8707 17.0508 63.5061 22.515 58.6192 26.2769C59.8626 21.8409 60.5188 16.9905 60.5188 11.9829V8.78923H65.8987C66.491 8.78923 67.0507 9.04162 67.4348 9.48151C67.8135 9.91525 67.9711 10.4597 67.8786 11.0145Z" fill="black"/>
<path d="M49.3194 17.821C49.1096 17.1929 48.552 16.735 47.8808 16.6398L42.5031 15.8787L40.0982 11.1323C39.7979 10.5399 39.1784 10.1647 38.5002 10.1647C37.8217 10.1647 37.2023 10.5399 36.9021 11.1323L34.4972 15.8787L29.1195 16.6398C28.4482 16.7347 27.8905 17.1928 27.6809 17.8212C27.4714 18.4498 27.6461 19.1394 28.1319 19.6007L32.0233 23.2952L31.1045 28.5119C30.9898 29.1632 31.2645 29.8212 31.8135 30.2097C32.3621 30.598 33.0898 30.6491 33.6902 30.3418L38.5002 27.879L43.31 30.3418C43.5707 30.4753 43.8554 30.541 44.1389 30.541C44.5083 30.541 44.8761 30.4293 45.1865 30.2095C45.7355 29.8211 46.0102 29.1631 45.8955 28.5118L44.9767 23.295L48.8681 19.6005C49.3542 19.1394 49.5289 18.4496 49.3194 17.821ZM41.8184 21.4461C41.3983 21.8448 41.2066 22.4193 41.3058 22.9826L41.7724 25.6325L39.3293 24.3814C39.0698 24.2484 38.7848 24.1821 38.5 24.1821C38.2152 24.1821 37.9303 24.2486 37.6707 24.3814L35.2276 25.6325L35.6942 22.9826C35.7934 22.4195 35.6017 21.845 35.1816 21.4461L33.2053 19.5696L35.9367 19.1829C36.5171 19.1009 37.019 18.7457 37.2785 18.2334L38.5002 15.8226L39.7216 18.2334C39.9814 18.7457 40.4829 19.1007 41.0634 19.1829L43.7948 19.5696L41.8184 21.4461Z" fill="black"/>
</svg>
