<svg width="75" height="75" viewBox="0 0 75 75" fill="none" xmlns="http://www.w3.org/2000/svg">
<g clip-path="url(#clip0)">
<path d="M48.1705 54.0136C47.382 53.5397 46.5726 53.0634 45.7633 52.5964C45.9536 50.9748 45.954 49.3345 45.7642 47.7161C46.5766 47.2474 47.3855 46.7713 48.1702 46.2995C49.4915 45.5055 50.0423 43.8303 49.451 42.4025C49.451 42.4025 49.451 42.4025 49.4509 42.4024L47.7266 38.2396C47.1353 36.8123 45.562 36.0167 44.0655 36.3895C43.1762 36.6108 42.2676 36.8462 41.3622 37.0891C40.3513 35.81 39.1913 34.6503 37.9106 33.6388C38.1534 32.7332 38.389 31.8242 38.6105 30.9346C38.9833 29.4388 38.1879 27.865 36.7605 27.2736L32.5977 25.5494C31.1704 24.9579 29.4947 25.5082 28.7005 26.8298C28.2275 27.617 27.751 28.4263 27.2834 29.237C25.6623 29.0467 24.0222 29.0462 22.4031 29.2359C21.9341 28.4228 21.4579 27.6138 20.9866 26.8298C20.1921 25.5085 18.5169 24.958 17.0894 25.5494L12.9266 27.2736C11.4996 27.8648 10.7039 29.4388 11.0767 30.9346C11.2986 31.8259 11.5338 32.7347 11.7763 33.6379C10.4973 34.6485 9.33746 35.8088 8.32613 37.0895C7.41851 36.8459 6.50943 36.6107 5.62159 36.3895C4.1254 36.0164 2.55186 36.8125 1.9605 38.2397L0.236528 42.4024C-0.354536 43.8299 0.196099 45.5052 1.51709 46.2992C2.30445 46.7723 3.11378 47.2487 3.92427 47.7164C3.73414 49.3374 3.7337 50.9774 3.92339 52.5967C3.11216 53.0647 2.30328 53.5409 1.5168 54.0135C0.195805 54.8076 -0.354829 56.4828 0.236382 57.9104L1.9608 62.0732C2.55201 63.5004 4.1251 64.2962 5.62188 63.9233C6.51016 63.7021 7.41895 63.4668 8.32496 63.2237C9.33585 64.5026 10.4959 65.6622 11.7766 66.6738C11.5334 67.5804 11.298 68.4895 11.0767 69.3781C10.7039 70.8738 11.4993 72.4478 12.9266 73.039L17.0896 74.7634C17.4763 74.9235 17.881 75 18.2815 75C19.3599 75 20.4076 74.4464 20.9872 73.4831C21.4567 72.7019 21.9329 71.8929 22.4043 71.0761C24.0252 71.2661 25.6656 71.2664 27.2846 71.077C27.7503 71.8844 28.2265 72.6933 28.7011 73.4833C29.4953 74.8046 31.1705 75.3549 32.5983 74.7637L36.7611 73.0394C38.1881 72.4482 38.9839 70.8743 38.611 69.3785C38.3909 68.4948 38.1556 67.586 37.9114 66.6751C39.1901 65.6645 40.3501 64.5044 41.3617 63.2237C42.2667 63.4664 43.1758 63.7017 44.0658 63.9234C45.5616 64.2965 47.1356 63.501 47.7269 62.0733L49.4512 57.9104C50.0421 56.4829 49.4915 54.8076 48.1705 54.0136ZM44.6947 60.6202C43.8397 60.4061 42.9681 60.1796 42.1015 59.9461C40.8745 59.6161 39.5798 60.0475 38.8028 61.0457C37.9098 62.1927 36.8764 63.2263 35.7313 64.118C34.7342 64.8946 34.3034 66.189 34.6337 67.4152C34.8685 68.2873 35.0948 69.1583 35.3077 70.0074L31.4812 71.5922C31.0261 70.8328 30.5704 70.0569 30.1249 69.2829C29.4911 68.1822 28.2712 67.5722 27.0171 67.7275C25.577 67.9063 24.1152 67.9062 22.6733 67.7268C21.4157 67.5706 20.1968 68.1806 19.5631 69.2815C19.1122 70.0644 18.6564 70.8407 18.2062 71.592L14.3797 70.0071C14.5938 69.1535 14.8202 68.2821 15.054 67.4142C15.3843 66.1873 14.9526 64.8924 13.9544 64.1153C12.8074 63.2225 11.7739 62.1892 10.8821 61.0443C10.1058 60.0469 8.81143 59.6162 7.58477 59.9464C6.71714 60.18 5.846 60.4065 4.99273 60.6204L3.40777 56.794C4.16363 56.3408 4.93985 55.8851 5.7171 55.4376C6.81793 54.8038 7.42847 53.5841 7.27261 52.3299C7.09346 50.8897 7.0939 49.4281 7.27305 47.9859C7.4295 46.7306 6.81939 45.5096 5.71797 44.8756C4.94102 44.4283 4.16465 43.9724 3.40762 43.5185L4.99258 39.6921C5.84512 39.9059 6.71641 40.1323 7.58565 40.3663C8.81202 40.6967 10.1069 40.2649 10.8845 39.2666C11.7773 38.1196 12.8107 37.086 13.9555 36.1945C14.9528 35.418 15.3836 34.1235 15.0533 32.8969C14.8204 32.032 14.5939 31.161 14.3793 30.305L18.2058 28.7202C18.6575 29.474 19.1134 30.25 19.5621 31.0295C20.1961 32.1303 21.417 32.7417 22.6699 32.5849C24.1094 32.4057 25.5709 32.4057 27.0142 32.5856C28.2703 32.742 29.4905 32.1312 30.1242 31.0304C30.5714 30.2534 31.0274 29.477 31.4809 28.7202L35.3074 30.305C35.0932 31.1594 34.8668 32.0309 34.6331 32.8982C34.3028 34.1248 34.7345 35.4198 35.7328 36.1969C36.8796 37.0897 37.9132 38.123 38.805 39.2679C39.5814 40.265 40.8753 40.6958 42.1025 40.3657C42.9695 40.1322 43.8405 39.9057 44.6944 39.6917L46.2792 43.518C45.5244 43.9705 44.7483 44.4262 43.9699 44.8745C42.8691 45.5083 42.2584 46.7281 42.4144 47.9823C42.5935 49.4218 42.5932 50.8835 42.4136 52.3266C42.2575 53.5821 42.8679 54.8027 43.9689 55.4366C44.7446 55.8832 45.521 56.3391 46.2792 56.7935L44.6947 60.6202Z" fill="black"/>
<path d="M35.4143 45.778C35.4143 45.778 35.4143 45.778 35.4142 45.7778C33.0001 39.9494 26.2947 37.1716 20.4653 39.5858C14.637 42.0002 11.8591 48.7062 14.2734 54.5347C15.4428 57.3583 17.6421 59.5572 20.4655 60.7269C21.8771 61.3115 23.3604 61.6039 24.8437 61.6039C26.327 61.6039 27.8103 61.3115 29.2223 60.7269C35.0506 58.3125 37.8284 51.6066 35.4143 45.778ZM27.9375 57.6252C25.9427 58.4515 23.7455 58.4514 21.7501 57.6252C19.7553 56.7989 18.2015 55.245 17.3751 53.25C15.669 49.1317 17.6319 44.3933 21.7503 42.6875C22.7588 42.2697 23.8041 42.0719 24.8333 42.0719C28.0072 42.0719 31.0245 43.9528 32.3128 47.0627C34.0186 51.1809 32.0558 55.9193 27.9375 57.6252Z" fill="black"/>
<path d="M72.7373 14.7855C72.1578 14.6988 71.5626 14.6146 70.9632 14.5346C70.6612 13.5302 70.2578 12.5563 69.76 11.6314C70.1268 11.1517 70.4883 10.6711 70.8377 10.199C71.6133 9.15 71.5011 7.6623 70.5769 6.73857L68.2613 4.42324C67.3372 3.49893 65.8495 3.38687 64.8008 4.16279C64.327 4.51333 63.8466 4.87471 63.3683 5.24019C62.4435 4.74243 61.4699 4.33901 60.4651 4.03682C60.385 3.4374 60.3011 2.84224 60.2143 2.26289C60.0214 0.972949 58.8903 0 57.5833 0H54.3085C53.0016 0 51.8705 0.972949 51.6775 2.26274C51.591 2.8418 51.5069 3.43711 51.4268 4.03667C50.422 4.33887 49.4482 4.74229 48.5236 5.24004C48.0456 4.87441 47.5648 4.51289 47.0913 4.16265C46.0423 3.38672 44.5546 3.49878 43.6307 4.42295L41.3154 6.73813C40.3911 7.66216 40.2787 9.15 41.0546 10.1991C41.4037 10.6711 41.7652 11.1519 42.1319 11.6314C41.6344 12.5562 41.2309 13.5299 40.9287 14.5346C40.3294 14.6147 39.7341 14.6988 39.1547 14.7855C37.8646 14.9786 36.8917 16.1096 36.8917 17.4167V20.6914C36.8917 21.9983 37.8644 23.1294 39.1544 23.3225C39.7339 23.4092 40.3291 23.4935 40.9285 23.5734C41.2307 24.578 41.6341 25.5517 42.1317 26.4766C41.7654 26.9559 41.4039 27.4364 41.054 27.9091C40.2786 28.9578 40.3906 30.4458 41.3148 31.3693L43.6304 33.685C44.5544 34.6093 46.0421 34.7212 47.091 33.9454C47.5647 33.5952 48.0452 33.2335 48.5233 32.8682C49.4483 33.3659 50.4222 33.7693 51.4266 34.0714C51.5064 34.6707 51.5907 35.266 51.6774 35.8455C51.8705 37.1354 53.0016 38.1084 54.3085 38.1084H57.5833C58.8903 38.1084 60.0214 37.1357 60.2143 35.8453C60.3009 35.2658 60.385 34.6707 60.4651 34.0712C61.4697 33.7693 62.4434 33.3656 63.3683 32.8679C63.8463 33.2335 64.327 33.595 64.8006 33.9454C65.8493 34.7213 67.3373 34.6093 68.2612 33.6851L70.5768 31.3698C71.501 30.4458 71.6132 28.9579 70.8372 27.9089C70.4877 27.4364 70.1262 26.9556 69.76 26.4768C70.2575 25.552 70.661 24.5785 70.9632 23.5736C71.5625 23.4935 72.1578 23.4094 72.7372 23.3227C74.0272 23.1296 75.0002 21.9986 75.0002 20.6915V17.4168C75 16.1098 74.0272 14.9786 72.7373 14.7855ZM71.8108 20.2356C71.2846 20.312 70.7477 20.3861 70.2091 20.4562C69.1437 20.5953 68.2716 21.3514 67.9877 22.3824C67.7157 23.3695 67.3209 24.3221 66.8145 25.2136C66.2855 26.1442 66.3671 27.2959 67.0224 28.148C67.3527 28.5775 67.6804 29.0098 67.9993 29.4369L66.3288 31.1076C65.9003 30.7878 65.468 30.4603 65.0394 30.1307C64.1877 29.4751 63.0358 29.3941 62.105 29.9225C61.2134 30.4291 60.2608 30.8238 59.2742 31.0958C58.2427 31.38 57.4865 32.2522 57.3479 33.3173C57.2778 33.8559 57.2038 34.3929 57.1273 34.9191H54.7645C54.6882 34.3929 54.6143 33.8561 54.5439 33.3179C54.4049 32.2523 53.6489 31.3802 52.6177 31.096C51.6308 30.8241 50.6785 30.4293 49.7866 29.9228C48.8558 29.394 47.7039 29.4753 46.8523 30.1307C46.4236 30.4604 45.9916 30.7878 45.5628 31.1076L43.8923 29.4369C44.2112 29.0093 44.5388 28.5773 44.8695 28.1474C45.5243 27.2956 45.6059 26.1439 45.0771 25.2133C44.5707 24.3218 44.1759 23.3691 43.9039 22.3822C43.6199 21.351 42.7478 20.595 41.6825 20.456C41.1438 20.3856 40.6068 20.3118 40.0807 20.2352V17.8727C40.6068 17.7964 41.1437 17.7223 41.6823 17.6521C42.7477 17.5131 43.6199 16.7569 43.9038 15.726C44.1758 14.739 44.5704 13.7864 45.0769 12.8947C45.6059 11.9641 45.5243 10.8123 44.8694 9.9605C44.5385 9.53042 44.2109 9.09829 43.8923 8.67144L45.5628 7.00078C45.9913 7.32056 46.4234 7.6481 46.8519 7.97754C47.7033 8.63306 48.8551 8.7148 49.7866 8.18584C50.6779 7.67944 51.6307 7.28467 52.6174 7.0125C53.6489 6.72832 54.4051 5.85615 54.5436 4.79106C54.614 4.25244 54.6881 3.71558 54.7644 3.1894H57.1272C57.2035 3.71543 57.2775 4.25229 57.3477 4.79062C57.4867 5.85615 58.2428 6.72832 59.2739 7.01235C60.2609 7.28437 61.2137 7.6793 62.1052 8.18569C63.0361 8.71465 64.1879 8.63247 65.0393 7.97769C65.468 7.6481 65.9 7.32056 66.3288 7.00078L67.9993 8.67144C67.6807 9.09844 67.3531 9.53071 67.0222 9.96094C66.3673 10.8126 66.2858 11.9643 66.8143 12.8949C67.3207 13.7867 67.7155 14.7394 67.9875 15.7261C68.2716 16.7574 69.1436 17.5134 70.209 17.6524C70.7476 17.7227 71.2846 17.7967 71.8108 17.8731V20.2356Z" fill="black"/>
<path d="M55.9459 12.2571C52.1981 12.2571 49.1489 15.3062 49.1489 19.0541C49.1489 22.8022 52.198 25.8513 55.9459 25.8513C59.6939 25.8513 62.743 22.8022 62.743 19.0541C62.743 15.3062 59.6939 12.2571 55.9459 12.2571ZM55.9459 22.8298C53.8643 22.8298 52.1703 21.136 52.1703 19.054C52.1703 16.972 53.8641 15.2783 55.9459 15.2783C58.0278 15.2783 59.7214 16.9721 59.7216 19.054C59.7216 21.136 58.0278 22.8298 55.9459 22.8298Z" fill="black"/>
</g>
<defs>
<clipPath id="clip0">
<rect width="75" height="75" fill="white"/>
</clipPath>
</defs>
</svg>
