<svg width="77" height="75" viewBox="0 0 77 75" fill="none" xmlns="http://www.w3.org/2000/svg">
<g clip-path="url(#clip0)">
<path d="M75.7513 33.969C71.4298 28.572 65.8321 24.1079 59.5637 21.0596C53.1649 17.9478 46.2811 16.3333 39.095 16.2486C38.8971 16.2434 38.1024 16.2434 37.9045 16.2486C30.7185 16.3334 23.8346 17.9478 17.4358 21.0596C11.1673 24.1079 5.56997 28.5719 1.24836 33.969C-0.416465 36.048 -0.416465 38.9521 1.24836 41.0311C5.56982 46.428 11.1673 50.8921 17.4358 53.9405C23.8346 57.0522 30.7184 58.6668 37.9045 58.7514C38.1024 58.7567 38.8971 58.7567 39.095 58.7514C46.2809 58.6666 53.1649 57.0522 59.5637 53.9405C65.8321 50.8921 71.4296 46.4282 75.7513 41.0311C77.4161 38.9518 77.4161 36.048 75.7513 33.969ZM18.8351 51.2107C12.982 48.3642 7.75469 44.1953 3.71837 39.1546C2.93829 38.1804 2.93829 36.8197 3.71837 35.8454C7.75454 30.8048 12.9818 26.6358 18.8351 23.7893C20.4976 22.981 22.1952 22.282 23.9242 21.6902C19.476 25.5849 16.6734 31.2293 16.6734 37.5C16.6734 43.7709 19.4761 49.4157 23.9248 53.3103C22.1958 52.7185 20.4977 52.0192 18.8351 51.2107ZM38.4999 55.7084C28.1918 55.7084 19.8058 47.5401 19.8058 37.4998C19.8058 27.4595 28.1918 19.2914 38.4999 19.2914C48.8079 19.2914 57.194 27.4596 57.194 37.5C57.194 47.5403 48.8079 55.7084 38.4999 55.7084ZM73.2814 39.1545C69.2452 44.1952 64.018 48.3641 58.1646 51.2106C56.5042 52.018 54.8076 52.7139 53.0807 53.3052C57.5259 49.4106 60.3263 43.768 60.3263 37.4998C60.3263 31.2282 57.5231 25.5832 53.0741 21.6885C54.8035 22.2804 56.5019 22.9803 58.1648 23.789C64.018 26.6355 69.2452 30.8045 73.2816 35.8451C74.0615 36.8195 74.0615 38.1802 73.2814 39.1545Z" fill="black"/>
<path d="M38.4998 29.7076C34.0886 29.7076 30.4998 33.2031 30.4998 37.4998C30.4998 41.7965 34.0886 45.292 38.4998 45.292C42.911 45.292 46.4998 41.7965 46.4998 37.4998C46.5 33.2031 42.9112 29.7076 38.4998 29.7076ZM38.4998 42.2412C35.8158 42.2412 33.632 40.1144 33.632 37.4998C33.632 34.8853 35.8155 32.7585 38.4998 32.7585C41.1838 32.7585 43.3675 34.8853 43.3675 37.4998C43.3676 40.1144 41.1838 42.2412 38.4998 42.2412Z" fill="black"/>
</g>
<defs>
<clipPath id="clip0">
<rect width="77" height="75" fill="white"/>
</clipPath>
</defs>
</svg>
