<svg width="75" height="75" viewBox="0 0 75 75" fill="none" xmlns="http://www.w3.org/2000/svg">
<path d="M71.6566 30.2573C70.2461 30.0461 68.7981 29.8435 67.3531 29.6551C67.178 29.6324 67.0359 29.5136 66.9917 29.3527C66.3247 26.9324 65.3569 24.5968 64.1153 22.411C64.0318 22.2642 64.0475 22.079 64.1553 21.9389C65.044 20.7838 65.925 19.6162 66.7739 18.4686C67.92 16.9191 67.7535 14.7204 66.3871 13.3538L61.646 8.61271C60.2795 7.2463 58.0809 7.0799 56.5311 8.22628C55.386 9.07326 54.2185 9.95422 53.061 10.8447C52.9212 10.9525 52.7356 10.9682 52.5889 10.8848C50.4032 9.64323 48.0676 8.67541 45.6471 8.00832C45.4861 7.96422 45.3673 7.82213 45.3445 7.64665C45.1557 6.19938 44.9532 4.75152 44.7426 3.34351C44.4574 1.43731 42.7851 0 40.8525 0H34.1475C32.2148 0 30.5425 1.43731 30.2577 3.34337C30.0469 4.75167 29.8445 6.19938 29.6557 7.64694C29.6327 7.82228 29.514 7.96408 29.3529 8.00832C26.9324 8.6757 24.5967 9.64338 22.4114 10.8848C22.2645 10.9682 22.079 10.9521 21.939 10.8447C20.7816 9.95422 19.614 9.07326 18.4688 8.22614C16.9188 7.0799 14.7202 7.2466 13.354 8.61286L8.61286 13.354C7.2463 14.7207 7.08004 16.9196 8.22643 18.4689C9.07663 19.6182 9.95759 20.7856 10.8448 21.9389C10.9525 22.0788 10.9683 22.2641 10.885 22.411C9.64308 24.5973 8.67541 26.9328 8.00846 29.3527C7.96437 29.5134 7.82228 29.6322 7.64708 29.6552C6.20275 29.8438 4.75489 30.0462 3.34366 30.2574C1.43731 30.5423 0 32.2149 0 34.1473V40.8525C0 42.7851 1.43731 44.4575 3.34337 44.7426C4.7546 44.9538 6.2026 45.1562 7.64694 45.3446C7.82228 45.3676 7.96408 45.4863 8.00832 45.6473C8.67526 48.0673 9.64308 50.4029 10.8848 52.589C10.9682 52.7359 10.9524 52.9212 10.8447 53.0611C9.95524 54.2172 9.07429 55.3847 8.22629 56.5312C7.08004 58.0807 7.24616 60.2796 8.61271 61.6462L13.3538 66.3873C14.7205 67.7538 16.9194 67.9202 18.4688 66.7737C19.6139 65.9267 20.7813 65.0458 21.9389 64.1553C22.0788 64.0475 22.2642 64.032 22.411 64.1152C24.5965 65.3568 26.9319 66.3243 29.3527 66.9917C29.5137 67.0359 29.6325 67.1779 29.6554 67.3531C29.8442 68.8003 30.0468 70.2483 30.2574 71.6562C30.5425 73.5624 32.2148 74.9997 34.1475 74.9997H40.8525C42.7851 74.9997 44.4575 73.5624 44.7424 71.6559C44.9532 70.2463 45.1557 68.7984 45.3443 67.3528C45.3673 67.1774 45.486 67.0355 45.647 66.9911C48.0675 66.3237 50.4032 65.356 52.5886 64.1146C52.7355 64.0315 52.9208 64.0473 53.0608 64.1547C54.2182 65.0452 55.3858 65.9261 56.5309 66.7731C58.0804 67.9194 60.2792 67.7533 61.6459 66.3867L66.387 61.6456C67.7534 60.279 67.9198 58.0803 66.7736 56.5306C65.9247 55.3835 65.0436 54.2159 64.155 53.0605C64.0473 52.9207 64.0315 52.7353 64.115 52.5884C65.3568 50.4023 66.3244 48.0667 66.9914 45.6468C67.0359 45.4857 67.1777 45.367 67.3531 45.344C68.7978 45.1557 70.2458 44.9531 71.6565 44.742C73.5627 44.4571 75 42.7846 75 40.8521V34.1469C75 32.2148 73.5627 30.5422 71.6566 30.2573ZM71.4978 40.8528C71.4978 41.0652 71.3434 41.2483 71.1385 41.2792C69.7495 41.4871 68.3237 41.6863 66.9004 41.8722C65.3245 42.0776 64.0352 43.1941 63.6154 44.7169C63.0252 46.8582 62.1688 48.925 61.0702 50.8593C60.289 52.2347 60.4104 53.9373 61.3796 55.197C62.255 56.3349 63.1226 57.4847 63.9583 58.6144C64.0816 58.7809 64.0611 59.02 63.911 59.1701L59.1697 63.9112C59.0194 64.0615 58.7805 64.0816 58.6141 63.9587C57.4866 63.1245 56.3365 62.2569 55.1966 61.3799C53.937 60.4106 52.2345 60.2891 50.8593 61.0702C48.925 62.1688 46.8582 63.0253 44.7166 63.6156C43.1941 64.0353 42.0776 65.3247 41.8718 66.9007C41.6862 68.3248 41.4867 69.7507 41.2789 71.1388C41.2483 71.3437 41.0649 71.4981 40.8525 71.4981H34.1475C33.9351 71.4981 33.7517 71.3437 33.7211 71.1387C33.5138 69.7522 33.3141 68.3263 33.1282 66.9009C32.9227 65.3248 31.8059 64.0355 30.2834 63.6158C28.1416 63.0255 26.0749 62.169 24.1407 61.0702C23.5376 60.7278 22.8715 60.5588 22.2077 60.5588C21.3575 60.5588 20.5106 60.8357 19.8036 61.3801C18.6635 62.2571 17.5136 63.1248 16.3861 63.959C16.2194 64.0819 15.9807 64.0618 15.8306 63.9115L11.0893 59.1704C10.939 59.0201 10.9185 58.7814 11.0419 58.6148C11.877 57.4858 12.7445 56.3361 13.6206 55.1973C14.5896 53.9375 14.7112 52.2353 13.9303 50.8601C12.8312 48.9251 11.975 46.8585 11.3848 44.7174C10.9651 43.1948 9.67575 42.0782 8.09987 41.8726C6.67721 41.687 5.25118 41.4874 3.86148 41.2797C3.65655 41.2489 3.50216 41.0657 3.50216 40.8532V34.1481C3.50216 33.9357 3.65655 33.7524 3.86148 33.7216C5.25118 33.5138 6.67706 33.3143 8.09958 33.1287C9.6756 32.9233 10.965 31.8067 11.3846 30.2839C11.9745 28.1429 12.831 26.0762 13.9301 24.1413C14.7112 22.7659 14.5896 21.0635 13.6206 19.804C12.7468 18.6679 11.8792 17.5182 11.0419 16.3865C10.9188 16.22 10.9392 15.9809 11.0893 15.8309L15.8303 11.0896C15.9803 10.9393 16.2192 10.9193 16.3858 11.0422C17.5133 11.8762 18.6632 12.7439 19.8033 13.621C21.063 14.5899 22.7653 14.7116 24.1408 13.9304C26.0749 12.8318 28.1416 11.9753 30.2832 11.3849C31.8059 10.9653 32.9227 9.6759 33.1282 8.09987C33.3143 6.67443 33.5136 5.24854 33.7212 3.86163C33.7518 3.65699 33.9352 3.50245 34.1476 3.50245H40.8527C41.0651 3.50245 41.2485 3.65684 41.2791 3.86177C41.4867 5.24825 41.686 6.67399 41.8721 8.09987C42.0776 9.6759 43.1944 10.9653 44.7169 11.3849C46.8585 11.9753 48.9251 12.8318 50.8596 13.9304C52.2348 14.7112 53.9373 14.5899 55.1967 13.6207C56.3368 12.7437 57.4867 11.8761 58.6141 11.042C58.7806 10.9187 59.0197 10.939 59.1698 11.0895L63.911 15.8306C64.0613 15.9809 64.0815 16.2198 63.9584 16.3862C63.1227 17.5162 62.2551 18.6658 61.3797 19.8037C60.4107 21.0636 60.2891 22.7661 61.0703 24.1414C62.1691 26.0757 63.0255 28.1423 63.6158 30.2839C64.0355 31.8065 65.3251 32.923 66.9006 33.1284C68.3238 33.3141 69.7498 33.5136 71.139 33.7214C71.3439 33.7521 71.4983 33.9354 71.4983 34.1478V40.8528H71.4978Z" fill="black"/>
<path d="M37.5001 21.2206C28.5235 21.2206 21.2207 28.5235 21.2207 37.5001C21.2207 46.4767 28.5235 53.7795 37.5001 53.7795C46.4767 53.7795 53.7795 46.4767 53.7795 37.5001C53.7795 28.5235 46.4767 21.2206 37.5001 21.2206ZM37.5001 50.2772C30.4546 50.2772 24.723 44.5454 24.723 37.5001C24.723 30.4546 30.4549 24.7229 37.5001 24.7229C44.5454 24.7229 50.2772 30.4547 50.2772 37.5001C50.2772 44.5454 44.5456 50.2772 37.5001 50.2772Z" fill="black"/>
</svg>
