<svg width="75" height="75" viewBox="0 0 75 75" fill="none" xmlns="http://www.w3.org/2000/svg">
<g clip-path="url(#clip0)">
<path d="M74.2023 30.4781L38.6512 4.44829C37.9656 3.94644 37.0343 3.94644 36.349 4.44829L0.79754 30.4781C-0.0708198 31.114 -0.259492 32.3333 0.376397 33.2017C1.01229 34.0701 2.23177 34.2584 3.09998 33.6229L37.4999 8.43574L71.8999 33.6227C72.2468 33.8769 72.6499 33.9992 73.0495 33.9992C73.6495 33.9992 74.2416 33.723 74.6233 33.2016C75.2594 32.3334 75.0707 31.114 74.2023 30.4781Z" fill="black"/>
<path d="M64.7822 34.0639C63.7061 34.0639 62.8335 34.9364 62.8335 36.0126V67.0305H47.2444V50.099C47.2444 44.7259 42.873 40.3548 37.5002 40.3548C32.1275 40.3548 27.7561 44.7262 27.7561 50.099V67.0307H12.1668V36.0127C12.1668 34.9365 11.2942 34.0641 10.2181 34.0641C9.14202 34.0641 8.26941 34.9365 8.26941 36.0127V68.9795C8.26941 70.0557 9.14202 70.9282 10.2181 70.9282H29.7048C30.7296 70.9282 31.5682 70.1364 31.6458 69.1312C31.6505 69.0857 31.6534 69.0359 31.6534 68.9795V50.0991C31.6534 46.8751 34.2762 44.2523 37.5002 44.2523C40.7242 44.2523 43.347 46.8753 43.347 50.0991V68.9795C43.347 69.0356 43.3499 69.0845 43.3546 69.1295C43.4314 70.1354 44.2703 70.9282 45.2957 70.9282H64.7823C65.8586 70.9282 66.731 70.0557 66.731 68.9795V36.0127C66.7309 34.9364 65.8584 34.0639 64.7822 34.0639Z" fill="black"/>
</g>
<defs>
<clipPath id="clip0">
<rect width="75" height="75" fill="white"/>
</clipPath>
</defs>
</svg>
