<svg width="76" height="75" viewBox="0 0 76 75" fill="none" xmlns="http://www.w3.org/2000/svg">
<g clip-path="url(#clip0)">
<path d="M62.6288 19.3962H13.205C12.3037 19.3962 11.5729 20.1188 11.5729 21.0103V45.3889C11.5729 46.2804 12.3037 47.003 13.205 47.003C14.1062 47.003 14.837 46.2804 14.837 45.3889V22.6243H60.9968V45.3887C60.9968 46.2802 61.7276 47.0028 62.6288 47.0028C63.5301 47.0028 64.2609 46.2802 64.2609 45.3887V21.0101C64.2607 20.1188 63.53 19.3962 62.6288 19.3962Z" fill="black"/>
<path d="M74.3646 51.1527H71.3587V17.2555C71.3587 14.5651 69.1456 12.3763 66.4254 12.3763H9.40809C6.68771 12.3763 4.47477 14.5651 4.47477 17.2555V51.1527H1.46883C0.657618 51.1527 0 51.803 0 52.6054V55.4572C0 59.4089 3.25062 62.6238 7.24624 62.6238H68.5871C72.5827 62.6238 75.8333 59.4089 75.8333 55.4572V52.6054C75.8335 51.803 75.176 51.1527 74.3646 51.1527ZM7.73872 17.2555C7.73872 16.3452 8.48772 15.6044 9.40809 15.6044H66.4251C67.3457 15.6044 68.0945 16.3451 68.0945 17.2555V51.1527H45.9961C45.892 51.1494 45.7846 51.1582 45.678 51.1785C44.9866 51.3101 44.487 51.9086 44.487 52.6048C44.487 53.8311 43.4783 54.8285 42.2388 54.8285H33.5948C32.355 54.8285 31.3466 53.8309 31.3466 52.6048C31.3466 51.7914 30.6652 51.135 29.8437 51.1525H7.73872V17.2555ZM72.8958 55.4572C72.8958 57.807 70.9628 59.7184 68.5872 59.7184H7.24624C4.87052 59.7184 2.93766 57.807 2.93766 55.4572V54.0581H28.6208C29.2557 56.1808 31.2453 57.734 33.5947 57.734H42.2386C44.588 57.734 46.5776 56.1807 47.2127 54.0581H72.896V55.4572H72.8958Z" fill="black"/>
<path d="M40.3356 28.7782C39.6981 28.1479 38.6651 28.1479 38.0274 28.7782L27.7637 38.9296C27.1264 39.5599 27.1264 40.582 27.7637 41.2123C28.0824 41.5275 28.5001 41.685 28.9176 41.685C29.3353 41.685 29.7528 41.5272 30.0716 41.2123L40.3356 31.061C40.9729 30.4307 40.9729 29.4087 40.3356 28.7782Z" fill="black"/>
<path d="M46.4191 34.6611C45.7817 34.0307 44.7486 34.0307 44.1111 34.6611L40.0223 38.7049C39.385 39.3352 39.385 40.3573 40.0223 40.9877C40.341 41.303 40.7587 41.4604 41.1762 41.4604C41.5941 41.4604 42.0115 41.303 42.3302 40.9877L46.419 36.9439C47.0565 36.3136 47.0565 35.2915 46.4191 34.6611Z" fill="black"/>
</g>
<defs>
<clipPath id="clip0">
<rect width="75.8333" height="75" fill="white"/>
</clipPath>
</defs>
</svg>
