<svg width="75" height="75" viewBox="0 0 75 75" fill="none" xmlns="http://www.w3.org/2000/svg">
<path d="M65.6152 15.18C65.6102 14.7294 65.4359 14.2879 65.1047 13.9566L51.6625 0.514306C51.6619 0.51372 51.6615 0.513574 51.6609 0.513135C51.3435 0.195996 50.9049 0 50.4208 0H13.0778C11.0392 0 9.38083 1.6582 9.38083 3.69682V71.303C9.38083 73.3415 11.039 74.9998 13.0777 74.9998H61.922C63.9605 74.9998 65.6188 73.3416 65.6188 71.303V15.1982C65.6191 15.1917 65.6158 15.1863 65.6152 15.18ZM52.1768 5.99575L59.6232 13.4421H52.3617C52.2599 13.4421 52.1768 13.3591 52.1768 13.2573V5.99575ZM62.1069 71.3031C62.1069 71.405 62.0239 71.4879 61.9221 71.4879H13.0778C12.976 71.4879 12.8931 71.405 12.8931 71.3031V3.69682C12.8931 3.59502 12.976 3.51211 13.0778 3.51211H48.6647V13.2573C48.6647 15.2957 50.3232 16.9544 52.3618 16.9544H62.107V71.3031H62.1069Z" fill="black"/>
<path d="M53.0404 24.0255H21.9599C20.9901 24.0255 20.2038 24.8117 20.2038 25.7815C20.2038 26.7513 20.9901 27.5376 21.9599 27.5376H53.0402C54.0099 27.5376 54.7963 26.7513 54.7963 25.7815C54.7964 24.8117 54.0099 24.0255 53.0404 24.0255Z" fill="black"/>
<path d="M53.0404 34.622H21.9599C20.9901 34.622 20.2038 35.4083 20.2038 36.3781C20.2038 37.3478 20.9901 38.1341 21.9599 38.1341H53.0402C54.0099 38.1341 54.7963 37.3478 54.7963 36.3781C54.7964 35.4083 54.0099 34.622 53.0404 34.622Z" fill="black"/>
<path d="M53.0404 45.2184H21.9599C20.9901 45.2184 20.2038 46.0047 20.2038 46.9745C20.2038 47.9443 20.9901 48.7305 21.9599 48.7305H53.0402C54.0099 48.7305 54.7963 47.9443 54.7963 46.9745C54.7964 46.0049 54.0099 45.2184 53.0404 45.2184Z" fill="black"/>
<path d="M37.5001 55.8151H21.9599C20.9901 55.8151 20.2038 56.6014 20.2038 57.5712C20.2038 58.541 20.9901 59.3272 21.9599 59.3272H37.5001C38.4698 59.3272 39.2562 58.541 39.2562 57.5712C39.2562 56.6013 38.4698 55.8151 37.5001 55.8151Z" fill="black"/>
</svg>
