<svg width="76" height="75" viewBox="0 0 76 75" fill="none" xmlns="http://www.w3.org/2000/svg">
<g clip-path="url(#clip0)">
<path d="M65.6738 7.61896L40.9363 0.419394C39.0158 -0.139737 36.9847 -0.139737 35.0636 0.419394L10.3264 7.61881C8.50001 8.15026 7.22449 9.83365 7.22449 11.7128V31.9297C7.22449 41.2859 10.0467 50.2951 15.3862 57.9834C20.599 65.4897 27.8536 71.2644 36.3648 74.6826C36.8921 74.8943 37.4461 75.0002 38 75.0002C38.554 75.0002 39.108 74.8941 39.6351 74.6826C48.1463 71.2644 55.4009 65.49 60.6138 57.9834C65.953 50.295 68.7753 41.2859 68.7753 31.9297V11.7129C68.7756 9.8338 67.5001 8.15026 65.6738 7.61896ZM65.3155 31.9295C65.3155 40.5936 62.7027 48.9353 57.7599 56.0527C52.9312 63.0057 46.2129 68.3542 38.3311 71.5196C38.1176 71.6052 37.8826 71.6052 37.6692 71.5196C29.7873 68.3542 23.0689 63.0059 18.2403 56.0527C13.2975 48.9353 10.6847 40.5938 10.6847 31.9295V11.7128C10.6847 11.337 10.9399 11.0004 11.3052 10.8941L36.0426 3.69449C36.683 3.50802 37.3416 3.415 38.0002 3.415C38.6587 3.415 39.3173 3.50816 39.9576 3.69464L64.6953 10.8941C65.0603 11.0003 65.3155 11.3369 65.3155 11.7128V31.9295Z" fill="black"/>
<path d="M57.1707 15.1692L38.7339 9.80349C38.2539 9.66389 37.7465 9.6636 37.2661 9.80349L18.8298 15.1692C17.734 15.4883 16.9685 16.4984 16.9685 17.6258V31.9295C16.9685 39.4878 19.2853 46.7373 23.6681 52.8947C27.0661 57.669 31.6067 61.6108 36.7986 64.2941C37.1747 64.4886 37.5874 64.5857 38.0002 64.5857C38.4128 64.5857 38.8255 64.4886 39.2018 64.2941C44.3935 61.6109 48.9341 57.6689 52.3323 52.8947C56.715 46.7375 59.0318 39.4878 59.0318 31.9295V17.6258C59.0317 16.4981 58.2663 15.4881 57.1707 15.1692ZM55.5718 31.9295C55.5718 38.7816 53.4726 45.3526 49.5011 50.9319C46.5068 55.1385 42.5376 58.6314 38.0002 61.0569C33.4627 58.6313 29.4934 55.1385 26.4992 50.9319C22.5278 45.3526 20.4286 38.7816 20.4286 31.9295V18.264L38.0002 13.1499L55.5718 18.264V31.9295Z" fill="black"/>
</g>
<defs>
<clipPath id="clip0">
<rect width="76" height="75" fill="white"/>
</clipPath>
</defs>
</svg>
